<!-- shapes.svg -->
<svg width="0" height="0" xmlns="http://www.w3.org/2000/svg">
  <symbol id="myCircle">
    <circle cx="30" cy="30" r="30" fill="none" stroke="black" stroke-width=".5"/>
  </symbol>
  <symbol id="myCircle_volcanoes">
    <circle cx="30" cy="30" r="30" fill="none" stroke="black" stroke-width=".5"/>
    <circle cx="6" cy="34" r="3" fill="red"/>
    <line x1="8" y1="34" x2="12" y2="31" stroke="red" stroke-width=".5"/>
    <circle cx="11" cy="50" r="2" fill="darkred"/>
    <line x1="8" y1="14" x2="12" y2="11" stroke="red" stroke-width=".5"/>
    <circle cx="16" cy="18" r="1.5" fill="red"/>
    <line x1="16" y1="17" x2="21" y2="24" stroke="red" stroke-width=".4"/>
    <circle cx="28" cy="12" r="2" fill="red"/>
    <circle cx="28" cy="35" r="2" fill="red"/>
    <circle cx="36" cy="44" r="2.5" fill="red"/>
    <circle cx="40" cy="16" r="1" fill="red"/>
    <circle cx="46" cy="30" r="3" fill="darkred"/>
    <circle cx="49" cy="46" r="1" fill="red"/>
    <circle cx="54" cy="20" r="1" fill="darkred"/>
    <line x1="54" y1="20" x2="50" y2="17" stroke="red" stroke-width=".5"/>
  </symbol>
  <symbol id="myCircle_jungle">
    <circle cx="30" cy="30" r="30" fill="none" stroke="black" stroke-width=".5"/>
    <circle cx=" 6" cy="34" r="4" fill="green"/>
    <circle cx=" 8" cy="34" r="4" fill="green"/>
    <circle cx=" 9" cy="45" r="6" fill="darkgreen"/>
    <circle cx="11" cy="45" r="6" fill="darkgreen"/>
    <circle cx="12" cy="18" r="6" fill="green"/>
    <circle cx="16" cy="12" r="6" fill="green"/>
    <circle cx="18" cy="35" r="7" fill="darkgreen"/>
    <circle cx="23" cy="12" r="5" fill="green"/>
    <circle cx="28" cy="17" r="5" fill="darkgreen"/>
    <circle cx="32" cy="27" r="7" fill="green"/>
    <circle cx="32" cy="46" r="4" fill="green"/>
    <circle cx="35" cy="44" r="5" fill="darkgreen"/>
    <circle cx="36" cy="30" r="5" fill="green"/>
    <circle cx="40" cy="26" r="8" fill="green"/>
    <circle cx="42" cy="41" r="3" fill="darkgreen"/>
    <circle cx="45" cy="31" r="7" fill="darkgreen"/>
    <circle cx="46" cy="30" r="3" fill="darkgreen"/>
    <circle cx="49" cy="34" r="4" fill="darkgreen"/>
    <circle cx="48" cy="16" r="8" fill="green"/>
    <circle cx="50" cy="20" r="7" fill="darkgreen"/>
  </symbol>
  
	<symbol id="command_ship" viewBox="-50 -50 100 100" style="fill: rgb(216, 216, 216); stroke: rgb(0, 0, 0);">
		<g transform="scale(.01)">
		    <g style="fill: rgb(180, 100, 100);"> <!-- engines -->
			    <path d="M 15 10 L 5 50 L 25 50 Z"/>
			    <path d="M -15 10 L -5 50 L -25 50 Z"/>
		    </g>
		    <path d="M 0 -50 L -30 -30 L -30 30 L 30 30 L 30 -30 Z"/>
		    <g style="fill: rgb(180, 180, 180);"> <!-- fins -->
			    <path d="M -30 0 L -40 35 L -30 35 Z"/>
			    <path d="M 30 0 L 40 35 L 30 35 Z"/>
			    <path d="M 0 0 L 4 35 L -4 35 Z"/>
		    </g>
	    </g>
	</symbol>
</svg>